<svg width="12" height="15" viewBox="0 0 12 15" fill="none" xmlns="http://www.w3.org/2000/svg">
<path id="event_available" d="M5.3 11.7333L2.93333 9.36658L3.9 8.39992L5.3 9.79992L8.1 6.99992L9.06667 7.96658L5.3 11.7333ZM1.33333 14.1666C0.966667 14.1666 0.652778 14.036 0.391667 13.7749C0.130556 13.5138 0 13.1999 0 12.8333V3.49992C0 3.13325 0.130556 2.81936 0.391667 2.55825C0.652778 2.29714 0.966667 2.16659 1.33333 2.16659H2V0.833252H3.33333V2.16659H8.66667V0.833252H10V2.16659H10.6667C11.0333 2.16659 11.3472 2.29714 11.6083 2.55825C11.8694 2.81936 12 3.13325 12 3.49992V12.8333C12 13.1999 11.8694 13.5138 11.6083 13.7749C11.3472 14.036 11.0333 14.1666 10.6667 14.1666H1.33333ZM1.33333 12.8333H10.6667V6.16658H1.33333V12.8333Z" fill="#1E3D83"/>
</svg>
