<svg width="24" height="25" viewBox="0 0 24 25" fill="none" xmlns="http://www.w3.org/2000/svg">
<mask id="mask0_1043_1871" style="mask-type:alpha" maskUnits="userSpaceOnUse" x="0" y="0" width="24" height="25">
<rect y="0.5" width="24" height="24" fill="#D9D9D9"/>
</mask>
<g mask="url(#mask0_1043_1871)">
<path d="M7 17.5C6.16667 17.5 5.45833 17.2083 4.875 16.625C4.29167 16.0417 4 15.3333 4 14.5H2V11.5C2 10.4 2.39167 9.45833 3.175 8.675C3.95833 7.89167 4.9 7.5 6 7.5H10V12.5H13.5L17 8.15V5.5H14V3.5H17C17.55 3.5 18.0208 3.69583 18.4125 4.0875C18.8042 4.47917 19 4.95 19 5.5V8.85L14.5 14.5H10C10 15.3333 9.70833 16.0417 9.125 16.625C8.54167 17.2083 7.83333 17.5 7 17.5ZM7 15.5C7.28333 15.5 7.52083 15.4042 7.7125 15.2125C7.90417 15.0208 8 14.7833 8 14.5H6C6 14.7833 6.09583 15.0208 6.2875 15.2125C6.47917 15.4042 6.71667 15.5 7 15.5ZM5 6.5V4.5H10V6.5H5ZM19 17.5C18.1667 17.5 17.4583 17.2083 16.875 16.625C16.2917 16.0417 16 15.3333 16 14.5C16 13.6667 16.2917 12.9583 16.875 12.375C17.4583 11.7917 18.1667 11.5 19 11.5C19.8333 11.5 20.5417 11.7917 21.125 12.375C21.7083 12.9583 22 13.6667 22 14.5C22 15.3333 21.7083 16.0417 21.125 16.625C20.5417 17.2083 19.8333 17.5 19 17.5ZM19 15.5C19.2833 15.5 19.5208 15.4042 19.7125 15.2125C19.9042 15.0208 20 14.7833 20 14.5C20 14.2167 19.9042 13.9792 19.7125 13.7875C19.5208 13.5958 19.2833 13.5 19 13.5C18.7167 13.5 18.4792 13.5958 18.2875 13.7875C18.0958 13.9792 18 14.2167 18 14.5C18 14.7833 18.0958 15.0208 18.2875 15.2125C18.4792 15.4042 18.7167 15.5 19 15.5ZM13 23.5L7 20.5H11V18.5L17 21.5H13V23.5ZM4 12.5H8V9.5H6C5.45 9.5 4.97917 9.69583 4.5875 10.0875C4.19583 10.4792 4 10.95 4 11.5V12.5Z" fill="#1E3D83"/>
</g>
</svg>
