<svg width="20" height="20" viewBox="0 0 20 20" fill="none" xmlns="http://www.w3.org/2000/svg">
<mask id="mask0_1143_6689" style="mask-type:alpha" maskUnits="userSpaceOnUse" x="0" y="0" width="20" height="20">
<rect width="20" height="20" fill="#D9D9D9"/>
</mask>
<g mask="url(#mask0_1143_6689)">
<path d="M3.33366 16.6666C2.87533 16.6666 2.48296 16.5034 2.15658 16.177C1.83019 15.8506 1.66699 15.4583 1.66699 14.9999V11.6666C2.12533 11.6666 2.51769 11.5034 2.84408 11.177C3.17046 10.8506 3.33366 10.4583 3.33366 9.99992C3.33366 9.54158 3.17046 9.14922 2.84408 8.82284C2.51769 8.49645 2.12533 8.33325 1.66699 8.33325V4.99992C1.66699 4.54159 1.83019 4.14922 2.15658 3.82284C2.48296 3.49645 2.87533 3.33325 3.33366 3.33325H16.667C17.1253 3.33325 17.5177 3.49645 17.8441 3.82284C18.1705 4.14922 18.3337 4.54159 18.3337 4.99992V8.33325C17.8753 8.33325 17.483 8.49645 17.1566 8.82284C16.8302 9.14922 16.667 9.54158 16.667 9.99992C16.667 10.4583 16.8302 10.8506 17.1566 11.177C17.483 11.5034 17.8753 11.6666 18.3337 11.6666V14.9999C18.3337 15.4583 18.1705 15.8506 17.8441 16.177C17.5177 16.5034 17.1253 16.6666 16.667 16.6666H3.33366ZM3.33366 14.9999H16.667V12.8749C16.1531 12.5694 15.7469 12.1631 15.4482 11.6562C15.1496 11.1492 15.0003 10.5971 15.0003 9.99992C15.0003 9.4027 15.1496 8.85061 15.4482 8.34367C15.7469 7.83672 16.1531 7.43047 16.667 7.12492V4.99992H3.33366V7.12492C3.84755 7.43047 4.2538 7.83672 4.55241 8.34367C4.85102 8.85061 5.00033 9.4027 5.00033 9.99992C5.00033 10.5971 4.85102 11.1492 4.55241 11.6562C4.2538 12.1631 3.84755 12.5694 3.33366 12.8749V14.9999ZM10.0003 14.1666C10.2364 14.1666 10.4344 14.0867 10.5941 13.927C10.7538 13.7673 10.8337 13.5694 10.8337 13.3333C10.8337 13.0971 10.7538 12.8992 10.5941 12.7395C10.4344 12.5798 10.2364 12.4999 10.0003 12.4999C9.76421 12.4999 9.5663 12.5798 9.40658 12.7395C9.24685 12.8992 9.16699 13.0971 9.16699 13.3333C9.16699 13.5694 9.24685 13.7673 9.40658 13.927C9.5663 14.0867 9.76421 14.1666 10.0003 14.1666ZM10.0003 10.8333C10.2364 10.8333 10.4344 10.7534 10.5941 10.5937C10.7538 10.4339 10.8337 10.236 10.8337 9.99992C10.8337 9.76381 10.7538 9.56589 10.5941 9.40617C10.4344 9.24645 10.2364 9.16658 10.0003 9.16658C9.76421 9.16658 9.5663 9.24645 9.40658 9.40617C9.24685 9.56589 9.16699 9.76381 9.16699 9.99992C9.16699 10.236 9.24685 10.4339 9.40658 10.5937C9.5663 10.7534 9.76421 10.8333 10.0003 10.8333ZM10.0003 7.49992C10.2364 7.49992 10.4344 7.42006 10.5941 7.26034C10.7538 7.10061 10.8337 6.9027 10.8337 6.66659C10.8337 6.43047 10.7538 6.23256 10.5941 6.07284C10.4344 5.91311 10.2364 5.83325 10.0003 5.83325C9.76421 5.83325 9.5663 5.91311 9.40658 6.07284C9.24685 6.23256 9.16699 6.43047 9.16699 6.66659C9.16699 6.9027 9.24685 7.10061 9.40658 7.26034C9.5663 7.42006 9.76421 7.49992 10.0003 7.49992Z" fill="#4F4F4F"/>
</g>
</svg>
