<svg width="17" height="20" viewBox="0 0 17 20" fill="none" xmlns="http://www.w3.org/2000/svg">
<path d="M2.5 11.5C2.5 12.3667 2.675 13.1875 3.025 13.9625C3.375 14.7375 3.875 15.4167 4.525 16C4.50833 15.9167 4.5 15.8417 4.5 15.775V15.55C4.5 15.0167 4.6 14.5167 4.8 14.05C5 13.5833 5.29167 13.1583 5.675 12.775L8.5 10L11.325 12.775C11.7083 13.1583 12 13.5833 12.2 14.05C12.4 14.5167 12.5 15.0167 12.5 15.55V15.775C12.5 15.8417 12.4917 15.9167 12.475 16C13.125 15.4167 13.625 14.7375 13.975 13.9625C14.325 13.1875 14.5 12.3667 14.5 11.5C14.5 10.6667 14.3458 9.87917 14.0375 9.1375C13.7292 8.39583 13.2833 7.73333 12.7 7.15C12.3667 7.36667 12.0167 7.52917 11.65 7.6375C11.2833 7.74583 10.9083 7.8 10.525 7.8C9.49167 7.8 8.59583 7.45833 7.8375 6.775C7.07917 6.09167 6.64167 5.25 6.525 4.25C5.875 4.8 5.3 5.37083 4.8 5.9625C4.3 6.55417 3.87917 7.15417 3.5375 7.7625C3.19583 8.37083 2.9375 8.99167 2.7625 9.625C2.5875 10.2583 2.5 10.8833 2.5 11.5ZM8.5 12.8L7.075 14.2C6.89167 14.3833 6.75 14.5917 6.65 14.825C6.55 15.0583 6.5 15.3 6.5 15.55C6.5 16.0833 6.69583 16.5417 7.0875 16.925C7.47917 17.3083 7.95 17.5 8.5 17.5C9.05 17.5 9.52083 17.3083 9.9125 16.925C10.3042 16.5417 10.5 16.0833 10.5 15.55C10.5 15.2833 10.45 15.0375 10.35 14.8125C10.25 14.5875 10.1083 14.3833 9.925 14.2L8.5 12.8ZM8.5 0.5V3.8C8.5 4.36667 8.69583 4.84167 9.0875 5.225C9.47917 5.60833 9.95833 5.8 10.525 5.8C10.825 5.8 11.1042 5.7375 11.3625 5.6125C11.6208 5.4875 11.85 5.3 12.05 5.05L12.5 4.5C13.7333 5.2 14.7083 6.175 15.425 7.425C16.1417 8.675 16.5 10.0333 16.5 11.5C16.5 13.7333 15.725 15.625 14.175 17.175C12.625 18.725 10.7333 19.5 8.5 19.5C6.26667 19.5 4.375 18.725 2.825 17.175C1.275 15.625 0.5 13.7333 0.5 11.5C0.5 9.35 1.22083 7.30833 2.6625 5.375C4.10417 3.44167 6.05 1.81667 8.5 0.5Z" fill="#1E3D83"/>
</svg>
