<svg width="16" height="16" viewBox="0 0 16 16" fill="none" xmlns="http://www.w3.org/2000/svg">
<mask id="mask0_565_8457" style="mask-type:alpha" maskUnits="userSpaceOnUse" x="0" y="0" width="16" height="16">
<rect width="16" height="16" fill="#D9D9D9"/>
</mask>
<g mask="url(#mask0_565_8457)">
<path d="M8.00004 11.333C8.18893 11.333 8.34726 11.2691 8.47504 11.1413C8.60282 11.0136 8.66671 10.8552 8.66671 10.6663C8.66671 10.4775 8.60282 10.3191 8.47504 10.1913C8.34726 10.0636 8.18893 9.99967 8.00004 9.99967C7.81115 9.99967 7.65282 10.0636 7.52504 10.1913C7.39726 10.3191 7.33337 10.4775 7.33337 10.6663C7.33337 10.8552 7.39726 11.0136 7.52504 11.1413C7.65282 11.2691 7.81115 11.333 8.00004 11.333ZM7.33337 8.66634H8.66671V4.66634H7.33337V8.66634ZM8.00004 14.6663C7.07782 14.6663 6.21115 14.4913 5.40004 14.1413C4.58893 13.7913 3.88337 13.3163 3.28337 12.7163C2.68337 12.1163 2.20837 11.4108 1.85837 10.5997C1.50837 9.78856 1.33337 8.9219 1.33337 7.99967C1.33337 7.07745 1.50837 6.21079 1.85837 5.39967C2.20837 4.58856 2.68337 3.88301 3.28337 3.28301C3.88337 2.68301 4.58893 2.20801 5.40004 1.85801C6.21115 1.50801 7.07782 1.33301 8.00004 1.33301C8.92226 1.33301 9.78893 1.50801 10.6 1.85801C11.4112 2.20801 12.1167 2.68301 12.7167 3.28301C13.3167 3.88301 13.7917 4.58856 14.1417 5.39967C14.4917 6.21079 14.6667 7.07745 14.6667 7.99967C14.6667 8.9219 14.4917 9.78856 14.1417 10.5997C13.7917 11.4108 13.3167 12.1163 12.7167 12.7163C12.1167 13.3163 11.4112 13.7913 10.6 14.1413C9.78893 14.4913 8.92226 14.6663 8.00004 14.6663Z" fill="#F2994A"/>
</g>
</svg>
