<svg width="20" height="21" viewBox="0 0 20 21" fill="none" xmlns="http://www.w3.org/2000/svg">
<path d="M14.031 4.25C14.486 4.24962 14.9366 4.34008 15.3562 4.51609C15.7758 4.6921 16.1561 4.95011 16.4747 5.275C17.1312 5.94149 17.4992 6.83947 17.4992 7.775C17.4992 8.71053 17.1312 9.60851 16.4747 10.275L9.99974 16.8313L3.52474 10.275C2.86823 9.60851 2.50023 8.71053 2.50023 7.775C2.50023 6.83947 2.86823 5.94149 3.52474 5.275C3.84354 4.95035 4.22385 4.69247 4.64343 4.51643C5.06302 4.3404 5.51347 4.24973 5.96849 4.24973C6.4235 4.24973 6.87396 4.3404 7.29354 4.51643C7.71313 4.69247 8.09343 4.95035 8.41224 5.275L9.99974 6.9L11.581 5.2875C11.8986 4.95874 12.2793 4.69741 12.7003 4.51915C13.1212 4.34089 13.5738 4.24935 14.031 4.25V4.25ZM14.031 3C13.4095 2.99947 12.7942 3.12304 12.2211 3.36344C11.648 3.60384 11.1286 3.95625 10.6935 4.4L9.99974 5.1L9.30599 4.4C8.87033 3.95705 8.35086 3.60526 7.77785 3.36512C7.20485 3.12498 6.58978 3.00131 5.96849 3.00131C5.3472 3.00131 4.73212 3.12498 4.15912 3.36512C3.58612 3.60526 3.06664 3.95705 2.63099 4.4C1.74466 5.30227 1.24805 6.51648 1.24805 7.78125C1.24805 9.04603 1.74466 10.2602 2.63099 11.1625L9.99974 18.625L17.3685 11.1625C18.2548 10.2602 18.7514 9.04603 18.7514 7.78125C18.7514 6.51648 18.2548 5.30227 17.3685 4.4C16.9329 3.95682 16.4135 3.60478 15.8405 3.36441C15.2675 3.12405 14.6524 3.00017 14.031 3V3Z" fill="black"/>
</svg>
