<svg width="19" height="18" viewBox="0 0 19 18" fill="none" xmlns="http://www.w3.org/2000/svg">
<path d="M2 17.4999C1.58333 17.4999 1.22917 17.3541 0.9375 17.0624C0.645833 16.7707 0.5 16.4166 0.5 15.9999V14.0999L4.5 10.5499V17.4999H2ZM5.5 17.4999V13.4999H13.5V17.4999H5.5ZM14.5 17.4999V9.2999L10.225 5.4999L13.25 2.8249L18 7.0499C18.1667 7.1999 18.2917 7.37074 18.375 7.5624C18.4583 7.75407 18.5 7.95824 18.5 8.1749V15.9999C18.5 16.4166 18.3542 16.7707 18.0625 17.0624C17.7708 17.3541 17.4167 17.4999 17 17.4999H14.5ZM0.5 12.7499V8.1749C0.5 7.95824 0.541667 7.7499 0.625 7.5499C0.708333 7.3499 0.833333 7.18324 1 7.0499L8.5 0.399902C8.63333 0.266569 8.7875 0.170736 8.9625 0.112402C9.1375 0.054069 9.31667 0.0249023 9.5 0.0249023C9.68333 0.0249023 9.8625 0.054069 10.0375 0.112402C10.2125 0.170736 10.3667 0.266569 10.5 0.399902L12.5 2.1749L0.5 12.7499Z" fill="#828282"/>
</svg>
