<svg width="20" height="20" viewBox="0 0 20 20" fill="none" xmlns="http://www.w3.org/2000/svg">
<g id="info">
<mask id="mask0_1178_5064" style="mask-type:alpha" maskUnits="userSpaceOnUse" x="0" y="0" width="20" height="20">
<rect id="Bounding box" width="20" height="20" fill="#D9D9D9"/>
</mask>
<g mask="url(#mask0_1178_5064)">
<path id="info_2" d="M9.16699 14.1667H10.8337V9.16675H9.16699V14.1667ZM10.0003 7.50008C10.2364 7.50008 10.4344 7.42022 10.5941 7.2605C10.7538 7.10078 10.8337 6.90286 10.8337 6.66675C10.8337 6.43064 10.7538 6.23272 10.5941 6.073C10.4344 5.91328 10.2364 5.83341 10.0003 5.83341C9.76421 5.83341 9.5663 5.91328 9.40658 6.073C9.24685 6.23272 9.16699 6.43064 9.16699 6.66675C9.16699 6.90286 9.24685 7.10078 9.40658 7.2605C9.5663 7.42022 9.76421 7.50008 10.0003 7.50008ZM10.0003 18.3334C8.84755 18.3334 7.76421 18.1147 6.75033 17.6772C5.73644 17.2397 4.85449 16.6459 4.10449 15.8959C3.35449 15.1459 2.76074 14.264 2.32324 13.2501C1.88574 12.2362 1.66699 11.1529 1.66699 10.0001C1.66699 8.8473 1.88574 7.76397 2.32324 6.75008C2.76074 5.73619 3.35449 4.85425 4.10449 4.10425C4.85449 3.35425 5.73644 2.7605 6.75033 2.323C7.76421 1.8855 8.84755 1.66675 10.0003 1.66675C11.1531 1.66675 12.2364 1.8855 13.2503 2.323C14.2642 2.7605 15.1462 3.35425 15.8962 4.10425C16.6462 4.85425 17.2399 5.73619 17.6774 6.75008C18.1149 7.76397 18.3337 8.8473 18.3337 10.0001C18.3337 11.1529 18.1149 12.2362 17.6774 13.2501C17.2399 14.264 16.6462 15.1459 15.8962 15.8959C15.1462 16.6459 14.2642 17.2397 13.2503 17.6772C12.2364 18.1147 11.1531 18.3334 10.0003 18.3334Z" fill="#1E3D83"/>
</g>
</g>
</svg>
