<svg width="14" height="18" viewBox="0 0 14 18" fill="none" xmlns="http://www.w3.org/2000/svg">
<path d="M7.00016 8.99996C7.4585 8.99996 7.85086 8.83677 8.17725 8.51038C8.50364 8.18399 8.66683 7.79163 8.66683 7.33329C8.66683 6.87496 8.50364 6.4826 8.17725 6.15621C7.85086 5.82982 7.4585 5.66663 7.00016 5.66663C6.54183 5.66663 6.14947 5.82982 5.82308 6.15621C5.49669 6.4826 5.3335 6.87496 5.3335 7.33329C5.3335 7.79163 5.49669 8.18399 5.82308 8.51038C6.14947 8.83677 6.54183 8.99996 7.00016 8.99996ZM7.00016 15.125C8.69461 13.5694 9.95155 12.1562 10.771 10.8854C11.5904 9.61454 12.0002 8.48607 12.0002 7.49996C12.0002 5.98607 11.5175 4.74649 10.5522 3.78121C9.58697 2.81593 8.40294 2.33329 7.00016 2.33329C5.59739 2.33329 4.41336 2.81593 3.44808 3.78121C2.4828 4.74649 2.00016 5.98607 2.00016 7.49996C2.00016 8.48607 2.40989 9.61454 3.22933 10.8854C4.04877 12.1562 5.30572 13.5694 7.00016 15.125ZM7.00016 17.3333C4.76405 15.4305 3.09391 13.6632 1.98975 12.0312C0.885579 10.3993 0.333496 8.88885 0.333496 7.49996C0.333496 5.41663 1.00364 3.7569 2.34391 2.52079C3.68419 1.28468 5.23627 0.666626 7.00016 0.666626C8.76405 0.666626 10.3161 1.28468 11.6564 2.52079C12.9967 3.7569 13.6668 5.41663 13.6668 7.49996C13.6668 8.88885 13.1147 10.3993 12.0106 12.0312C10.9064 13.6632 9.23627 15.4305 7.00016 17.3333Z" fill="#1E3D83"/>
</svg>
