<svg width="16" height="17" viewBox="0 0 16 17" fill="none" xmlns="http://www.w3.org/2000/svg">
<g id="Component 78">
<mask id="mask0_1178_4588" style="mask-type:alpha" maskUnits="userSpaceOnUse" x="0" y="0" width="16" height="17">
<rect id="Bounding box" y="0.5" width="16" height="16" fill="#D9D9D9"/>
</mask>
<g mask="url(#mask0_1178_4588)">
<path id="local_atm" d="M7.33301 11.8334H8.66634V11.1667H9.33301C9.5219 11.1667 9.68023 11.1029 9.80801 10.9751C9.93579 10.8473 9.99967 10.689 9.99967 10.5001V8.50008C9.99967 8.31119 9.93579 8.15286 9.80801 8.02508C9.68023 7.8973 9.5219 7.83342 9.33301 7.83342H7.33301V7.16675H9.99967V5.83341H8.66634V5.16675H7.33301V5.83341H6.66634C6.47745 5.83341 6.31912 5.8973 6.19134 6.02508C6.06356 6.15286 5.99967 6.31119 5.99967 6.50008V8.50008C5.99967 8.68897 6.06356 8.8473 6.19134 8.97508C6.31912 9.10286 6.47745 9.16675 6.66634 9.16675H8.66634V9.83342H5.99967V11.1667H7.33301V11.8334ZM2.66634 13.8334C2.29967 13.8334 1.98579 13.7029 1.72467 13.4417C1.46356 13.1806 1.33301 12.8667 1.33301 12.5001V4.50008C1.33301 4.13341 1.46356 3.81953 1.72467 3.55841C1.98579 3.2973 2.29967 3.16675 2.66634 3.16675H13.333C13.6997 3.16675 14.0136 3.2973 14.2747 3.55841C14.5358 3.81953 14.6663 4.13341 14.6663 4.50008V12.5001C14.6663 12.8667 14.5358 13.1806 14.2747 13.4417C14.0136 13.7029 13.6997 13.8334 13.333 13.8334H2.66634Z" fill="#1E3D83"/>
</g>
</g>
</svg>
