<svg width="17" height="17" viewBox="0 0 17 17" fill="none" xmlns="http://www.w3.org/2000/svg">
<path d="M8.5 8.5C7.4 8.5 6.45833 8.10833 5.675 7.325C4.89167 6.54167 4.5 5.6 4.5 4.5C4.5 3.4 4.89167 2.45833 5.675 1.675C6.45833 0.891667 7.4 0.5 8.5 0.5C9.6 0.5 10.5417 0.891667 11.325 1.675C12.1083 2.45833 12.5 3.4 12.5 4.5C12.5 5.6 12.1083 6.54167 11.325 7.325C10.5417 8.10833 9.6 8.5 8.5 8.5ZM0.5 16.5V13.7C0.5 13.1333 0.645833 12.6125 0.9375 12.1375C1.22917 11.6625 1.61667 11.3 2.1 11.05C3.13333 10.5333 4.18333 10.1458 5.25 9.8875C6.31667 9.62917 7.4 9.5 8.5 9.5C9.6 9.5 10.6833 9.62917 11.75 9.8875C12.8167 10.1458 13.8667 10.5333 14.9 11.05C15.3833 11.3 15.7708 11.6625 16.0625 12.1375C16.3542 12.6125 16.5 13.1333 16.5 13.7V16.5H0.5Z" fill="#828282"/>
</svg>
