<svg width="20" height="20" viewBox="0 0 20 20" fill="none" xmlns="http://www.w3.org/2000/svg">
<g id="pace">
<mask id="mask0_1178_5265" style="mask-type:alpha" maskUnits="userSpaceOnUse" x="0" y="0" width="20" height="20">
<rect id="Bounding box" width="20" height="20" fill="#D9D9D9"/>
</mask>
<g mask="url(#mask0_1178_5265)">
<path id="pace_2" d="M10.0003 18.3334C8.84755 18.3334 7.76421 18.1147 6.75033 17.6772C5.73644 17.2397 4.85449 16.6459 4.10449 15.8959C3.35449 15.1459 2.76074 14.264 2.32324 13.2501C1.88574 12.2362 1.66699 11.1529 1.66699 10.0001C1.66699 8.8473 1.88574 7.76397 2.32324 6.75008C2.76074 5.73619 3.35449 4.85425 4.10449 4.10425C4.85449 3.35425 5.73644 2.7605 6.75033 2.323C7.76421 1.8855 8.84755 1.66675 10.0003 1.66675C11.1531 1.66675 12.2364 1.8855 13.2503 2.323C14.2642 2.7605 15.1462 3.35425 15.8962 4.10425C16.6462 4.85425 17.2399 5.73619 17.6774 6.75008C18.1149 7.76397 18.3337 8.8473 18.3337 10.0001C18.3337 10.3751 18.3128 10.7431 18.2712 11.1042C18.2295 11.4654 18.16 11.8195 18.0628 12.1667C17.8684 11.9445 17.6427 11.757 17.3857 11.6042C17.1288 11.4515 16.8475 11.3473 16.542 11.2917C16.5837 11.0834 16.6149 10.8716 16.6357 10.6563C16.6566 10.4411 16.667 10.2223 16.667 10.0001C16.667 8.13897 16.0212 6.56258 14.7295 5.27091C13.4378 3.97925 11.8614 3.33341 10.0003 3.33341C8.13921 3.33341 6.56283 3.97925 5.27116 5.27091C3.97949 6.56258 3.33366 8.13897 3.33366 10.0001C3.33366 11.8612 3.97949 13.4376 5.27116 14.7292C6.56283 16.0209 8.13921 16.6667 10.0003 16.6667C10.7087 16.6667 11.3857 16.5626 12.0316 16.3542C12.6774 16.1459 13.2712 15.8542 13.8128 15.4792C13.9795 15.7154 14.1844 15.9237 14.4274 16.1042C14.6705 16.2848 14.9309 16.4237 15.2087 16.5209C14.5003 17.0904 13.7052 17.5348 12.8232 17.8542C11.9413 18.1737 11.0003 18.3334 10.0003 18.3334ZM16.042 15.0001C15.7503 15.0001 15.5038 14.8994 15.3024 14.698C15.101 14.4966 15.0003 14.2501 15.0003 13.9584C15.0003 13.6667 15.101 13.4202 15.3024 13.2188C15.5038 13.0174 15.7503 12.9167 16.042 12.9167C16.3337 12.9167 16.5802 13.0174 16.7816 13.2188C16.983 13.4202 17.0837 13.6667 17.0837 13.9584C17.0837 14.2501 16.983 14.4966 16.7816 14.698C16.5802 14.8994 16.3337 15.0001 16.042 15.0001ZM12.7503 13.9167L9.16699 10.3334V5.83341H10.8337V9.66675L13.917 12.7501L12.7503 13.9167Z" fill="#1E3D83"/>
</g>
</g>
</svg>
