<svg width="24" height="25" viewBox="0 0 24 25" fill="none" xmlns="http://www.w3.org/2000/svg">
<mask id="mask0_565_8514" style="mask-type:alpha" maskUnits="userSpaceOnUse" x="0" y="0" width="24" height="25">
<rect y="0.5" width="24" height="24" fill="#D9D9D9"/>
</mask>
<g mask="url(#mask0_565_8514)">
<path d="M6.00003 21.5C5.00003 21.5 4.2042 21.1125 3.61253 20.3375C3.02087 19.5625 2.85003 18.7 3.10003 17.75L4.90003 10.95C4.35003 10.6 3.89587 10.125 3.53753 9.525C3.1792 8.925 3.00003 8.25 3.00003 7.5C3.00003 6.4 3.3917 5.45833 4.17503 4.675C4.95837 3.89167 5.90003 3.5 7.00003 3.5H15C15.75 3.5 16.3167 3.81667 16.7 4.45C17.0834 5.08333 17.1084 5.73333 16.775 6.4L14.775 10.4C14.5917 10.7333 14.3459 11 14.0375 11.2C13.7292 11.4 13.3834 11.5 13 11.5H10.975L10.7 12.5H11C11.2834 12.5 11.5209 12.5958 11.7125 12.7875C11.9042 12.9792 12 13.2167 12 13.5V15.5C12 15.7833 11.9042 16.0208 11.7125 16.2125C11.5209 16.4042 11.2834 16.5 11 16.5H9.65003L8.90003 19.3C8.7167 19.95 8.35837 20.4792 7.82503 20.8875C7.2917 21.2958 6.68337 21.5 6.00003 21.5ZM19 5.5L18.375 4.15L22 2.5L22.6 3.875L19 5.5ZM22 12.5L18.375 10.875L19 9.5L22.6 11.15L22 12.5ZM19 8.25V6.75H23V8.25H19Z" fill="#1E3D83"/>
</g>
</svg>
