<svg width="20" height="21" viewBox="0 0 20 21" fill="none" xmlns="http://www.w3.org/2000/svg">
<g id="share">
<path id="Vector" d="M14.3751 13.0001C13.9072 13.0025 13.4459 13.1098 13.0251 13.3143C12.6043 13.5187 12.2348 13.8151 11.9438 14.1814L7.37505 11.3251C7.54156 10.7877 7.54156 10.2125 7.37505 9.67513L11.9438 6.81888C12.4075 7.39308 13.0595 7.78461 13.7843 7.92413C14.509 8.06365 15.2598 7.94215 15.9035 7.58114C16.5473 7.22014 17.0424 6.64294 17.3014 5.95178C17.5603 5.26063 17.5662 4.50014 17.3181 3.80502C17.0701 3.10991 16.5839 2.52504 15.9459 2.15402C15.3079 1.783 14.5591 1.64978 13.8323 1.77796C13.1054 1.90614 12.4474 2.28744 11.9748 2.85433C11.5021 3.42121 11.2454 4.13708 11.2501 4.87513C11.253 5.15461 11.2951 5.43231 11.3751 5.70013L6.8063 8.55638C6.40296 8.04862 5.85164 7.67891 5.22877 7.4985C4.60591 7.31809 3.94234 7.33592 3.33006 7.54951C2.71778 7.7631 2.18711 8.16188 1.81161 8.69057C1.43611 9.21925 1.23438 9.85166 1.23438 10.5001C1.23437 11.1486 1.43611 11.781 1.81161 12.3097C2.18711 12.8384 2.71778 13.2372 3.33006 13.4507C3.94234 13.6643 4.60591 13.6822 5.22877 13.5018C5.85164 13.3213 6.40296 12.9516 6.8063 12.4439L11.3751 15.3001C11.2951 15.5679 11.253 15.8456 11.2501 16.1251C11.2501 16.7432 11.4333 17.3474 11.7767 17.8613C12.1201 18.3752 12.6081 18.7757 13.1792 19.0123C13.7502 19.2488 14.3785 19.3107 14.9847 19.1901C15.5909 19.0695 16.1477 18.7719 16.5848 18.3348C17.0218 17.8978 17.3194 17.341 17.44 16.7348C17.5606 16.1286 17.4987 15.5003 17.2622 14.9292C17.0257 14.3582 16.6251 13.8702 16.1112 13.5268C15.5973 13.1834 14.9931 13.0001 14.3751 13.0001ZM14.3751 3.00013C14.7459 3.00013 15.1084 3.11009 15.4167 3.31612C15.7251 3.52215 15.9654 3.81498 16.1073 4.1576C16.2492 4.50021 16.2864 4.87721 16.214 5.24092C16.1417 5.60464 15.9631 5.93873 15.7009 6.20095C15.4387 6.46318 15.1046 6.64175 14.7408 6.7141C14.3771 6.78645 14.0001 6.74932 13.6575 6.6074C13.3149 6.46549 13.0221 6.22516 12.816 5.91682C12.61 5.60848 12.5001 5.24597 12.5001 4.87513C12.5001 4.37785 12.6976 3.90093 13.0492 3.5493C13.4009 3.19767 13.8778 3.00013 14.3751 3.00013ZM4.37505 12.3751C4.00421 12.3751 3.6417 12.2652 3.33336 12.0591C3.02502 11.8531 2.78469 11.5603 2.64278 11.2177C2.50087 10.875 2.46373 10.498 2.53608 10.1343C2.60843 9.77062 2.787 9.43653 3.04923 9.1743C3.31145 8.91208 3.64554 8.7335 4.00926 8.66116C4.37297 8.58881 4.74997 8.62594 5.09258 8.76785C5.4352 8.90977 5.72803 9.15009 5.93406 9.45843C6.14009 9.76678 6.25005 10.1293 6.25005 10.5001C6.25005 10.9974 6.05251 11.4743 5.70088 11.826C5.34925 12.1776 4.87233 12.3751 4.37505 12.3751ZM14.3751 18.0001C14.0042 18.0001 13.6417 17.8902 13.3334 17.6841C13.025 17.4781 12.7847 17.1853 12.6428 16.8427C12.5009 16.5 12.4637 16.123 12.5361 15.7593C12.6084 15.3956 12.787 15.0615 13.0492 14.7993C13.3114 14.5371 13.6455 14.3585 14.0093 14.2862C14.373 14.2138 14.75 14.2509 15.0926 14.3929C15.4352 14.5348 15.728 14.7751 15.9341 15.0834C16.1401 15.3918 16.2501 15.7543 16.2501 16.1251C16.2501 16.6224 16.0525 17.0993 15.7009 17.451C15.3492 17.8026 14.8723 18.0001 14.3751 18.0001Z" fill="black"/>
</g>
</svg>
