<svg width="14" height="12" viewBox="0 0 14 12" fill="none" xmlns="http://www.w3.org/2000/svg">
<path d="M1.33333 11.1667C0.966667 11.1667 0.652778 11.0361 0.391667 10.775C0.130556 10.5139 0 10.2 0 9.83333V7.16667C0.366667 7.16667 0.680556 7.03611 0.941667 6.775C1.20278 6.51389 1.33333 6.2 1.33333 5.83333C1.33333 5.46667 1.20278 5.15278 0.941667 4.89167C0.680556 4.63056 0.366667 4.5 0 4.5V1.83333C0 1.46667 0.130556 1.15278 0.391667 0.891667C0.652778 0.630556 0.966667 0.5 1.33333 0.5H12C12.3667 0.5 12.6806 0.630556 12.9417 0.891667C13.2028 1.15278 13.3333 1.46667 13.3333 1.83333V4.5C12.9667 4.5 12.6528 4.63056 12.3917 4.89167C12.1306 5.15278 12 5.46667 12 5.83333C12 6.2 12.1306 6.51389 12.3917 6.775C12.6528 7.03611 12.9667 7.16667 13.3333 7.16667V9.83333C13.3333 10.2 13.2028 10.5139 12.9417 10.775C12.6806 11.0361 12.3667 11.1667 12 11.1667H1.33333ZM6.66667 9.16667C6.85556 9.16667 7.01389 9.10278 7.14167 8.975C7.26944 8.84722 7.33333 8.68889 7.33333 8.5C7.33333 8.31111 7.26944 8.15278 7.14167 8.025C7.01389 7.89722 6.85556 7.83333 6.66667 7.83333C6.47778 7.83333 6.31944 7.89722 6.19167 8.025C6.06389 8.15278 6 8.31111 6 8.5C6 8.68889 6.06389 8.84722 6.19167 8.975C6.31944 9.10278 6.47778 9.16667 6.66667 9.16667ZM6.66667 6.5C6.85556 6.5 7.01389 6.43611 7.14167 6.30833C7.26944 6.18056 7.33333 6.02222 7.33333 5.83333C7.33333 5.64444 7.26944 5.48611 7.14167 5.35833C7.01389 5.23056 6.85556 5.16667 6.66667 5.16667C6.47778 5.16667 6.31944 5.23056 6.19167 5.35833C6.06389 5.48611 6 5.64444 6 5.83333C6 6.02222 6.06389 6.18056 6.19167 6.30833C6.31944 6.43611 6.47778 6.5 6.66667 6.5ZM6.66667 3.83333C6.85556 3.83333 7.01389 3.76944 7.14167 3.64167C7.26944 3.51389 7.33333 3.35556 7.33333 3.16667C7.33333 2.97778 7.26944 2.81944 7.14167 2.69167C7.01389 2.56389 6.85556 2.5 6.66667 2.5C6.47778 2.5 6.31944 2.56389 6.19167 2.69167C6.06389 2.81944 6 2.97778 6 3.16667C6 3.35556 6.06389 3.51389 6.19167 3.64167C6.31944 3.76944 6.47778 3.83333 6.66667 3.83333Z" fill="#1E3D83"/>
</svg>
